<svg xmlns="http://www.w3.org/2000/svg" xmlns:xlink="http://www.w3.org/1999/xlink" width="300" zoomAndPan="magnify" viewBox="0 0 224.87999 74.999997" height="100" preserveAspectRatio="xMidYMid meet" version="1.2"><defs/><g id="d24269bf7e"><g style="fill:#ffffff;fill-opacity:1;"><g transform="translate(0.494422, 43.805948)"><path style="stroke:none" d="M 19.671875 -24.25 L 19.671875 -19.546875 C 19.671875 -19.078125 19.441406 -18.84375 18.984375 -18.84375 L 14.875 -18.84375 C 14.40625 -18.84375 14.171875 -19.078125 14.171875 -19.546875 L 14.171875 -23.125 C 14.171875 -24.28125 13.59375 -24.859375 12.4375 -24.859375 L 9.640625 -24.859375 C 8.472656 -24.859375 7.890625 -24.28125 7.890625 -23.125 L 7.890625 -7.28125 C 7.890625 -6.125 8.472656 -5.546875 9.640625 -5.546875 L 12.4375 -5.546875 C 13.59375 -5.546875 14.171875 -6.125 14.171875 -7.28125 L 14.171875 -11 C 14.171875 -11.457031 14.40625 -11.6875 14.875 -11.6875 L 18.984375 -11.6875 C 19.441406 -11.6875 19.671875 -11.457031 19.671875 -11 L 19.671875 -6.28125 C 19.671875 -4.25 19.132812 -2.691406 18.0625 -1.609375 C 16.988281 -0.535156 15.429688 0 13.390625 0 L 8.5 0 C 6.46875 0 4.90625 -0.535156 3.8125 -1.609375 C 2.726562 -2.691406 2.1875 -4.25 2.1875 -6.28125 L 2.1875 -24.25 C 2.1875 -26.320312 2.726562 -27.882812 3.8125 -28.9375 C 4.90625 -30 6.46875 -30.53125 8.5 -30.53125 L 13.390625 -30.53125 C 15.429688 -30.53125 16.988281 -30 18.0625 -28.9375 C 19.132812 -27.882812 19.671875 -26.320312 19.671875 -24.25 Z M 19.671875 -24.25 "/></g></g><g style="fill:#ffffff;fill-opacity:1;"><g transform="translate(22.913896, 43.805948)"><path style="stroke:none" d="M 2.1875 -6.28125 L 2.1875 -24.25 C 2.1875 -26.320312 2.722656 -27.882812 3.796875 -28.9375 C 4.867188 -30 6.425781 -30.53125 8.46875 -30.53125 L 13.34375 -30.53125 C 15.414062 -30.53125 16.976562 -30 18.03125 -28.9375 C 19.09375 -27.882812 19.625 -26.320312 19.625 -24.25 L 19.625 -6.28125 C 19.625 -4.25 19.09375 -2.691406 18.03125 -1.609375 C 16.976562 -0.535156 15.414062 0 13.34375 0 L 8.46875 0 C 6.425781 0 4.867188 -0.535156 3.796875 -1.609375 C 2.722656 -2.691406 2.1875 -4.25 2.1875 -6.28125 Z M 9.59375 -5.625 L 12.390625 -5.625 C 13.554688 -5.625 14.140625 -6.207031 14.140625 -7.375 L 14.140625 -23.171875 C 14.140625 -24.328125 13.554688 -24.90625 12.390625 -24.90625 L 9.59375 -24.90625 C 8.4375 -24.90625 7.859375 -24.328125 7.859375 -23.171875 L 7.859375 -7.375 C 7.859375 -6.207031 8.4375 -5.625 9.59375 -5.625 Z M 9.59375 -5.625 "/></g></g><g style="fill:#ffffff;fill-opacity:1;"><g transform="translate(45.289756, 43.805948)"><path style="stroke:none" d="M 16.015625 -30.53125 L 20.109375 -30.53125 C 20.578125 -30.53125 20.8125 -30.300781 20.8125 -29.84375 L 20.8125 -0.703125 C 20.8125 -0.234375 20.578125 0 20.109375 0 L 16.671875 0 C 16.316406 0 16.050781 -0.1875 15.875 -0.5625 L 7.671875 -17.234375 L 7.671875 -0.703125 C 7.671875 -0.234375 7.441406 0 6.984375 0 L 2.875 0 C 2.414062 0 2.1875 -0.234375 2.1875 -0.703125 L 2.1875 -29.84375 C 2.1875 -30.300781 2.414062 -30.53125 2.875 -30.53125 L 6.328125 -30.53125 C 6.671875 -30.53125 6.929688 -30.34375 7.109375 -29.96875 L 15.3125 -13.3125 L 15.3125 -29.84375 C 15.3125 -30.300781 15.546875 -30.53125 16.015625 -30.53125 Z M 16.015625 -30.53125 "/></g></g><g style="fill:#ffffff;fill-opacity:1;"><g transform="translate(68.843283, 43.805948)"><path style="stroke:none" d="M 18.0625 -30.53125 L 2 -30.53125 C 1.539062 -30.53125 1.3125 -30.300781 1.3125 -29.84375 L 1.3125 -25.484375 C 1.3125 -25.015625 1.539062 -24.78125 2 -24.78125 L 7.0625 -24.78125 L 7.0625 -0.703125 C 7.0625 -0.234375 7.296875 0 7.765625 0 L 12.296875 0 C 12.765625 0 13 -0.234375 13 -0.703125 L 13 -24.78125 L 18.0625 -24.78125 C 18.53125 -24.78125 18.765625 -25.015625 18.765625 -25.484375 L 18.765625 -29.84375 C 18.765625 -30.300781 18.53125 -30.53125 18.0625 -30.53125 Z M 18.0625 -30.53125 "/></g></g><g style="fill:#ffffff;fill-opacity:1;"><g transform="translate(89.474449, 43.805948)"><path style="stroke:none" d="M 19.625 -24.25 L 19.625 -15.484375 C 19.625 -12.953125 18.8125 -11.179688 17.1875 -10.171875 L 19.453125 -0.78125 C 19.597656 -0.257812 19.394531 0 18.84375 0 L 14.578125 0 C 14.160156 0 13.910156 -0.203125 13.828125 -0.609375 L 11.734375 -9.203125 L 7.859375 -9.203125 L 7.859375 -0.703125 C 7.859375 -0.234375 7.625 0 7.15625 0 L 2.875 0 C 2.414062 0 2.1875 -0.234375 2.1875 -0.703125 L 2.1875 -29.84375 C 2.1875 -30.300781 2.414062 -30.53125 2.875 -30.53125 L 13.34375 -30.53125 C 15.414062 -30.53125 16.976562 -30 18.03125 -28.9375 C 19.09375 -27.882812 19.625 -26.320312 19.625 -24.25 Z M 7.859375 -14.828125 L 12.21875 -14.828125 C 13.375 -14.828125 13.953125 -15.410156 13.953125 -16.578125 L 13.953125 -23.171875 C 13.953125 -24.328125 13.375 -24.90625 12.21875 -24.90625 L 7.859375 -24.90625 Z M 7.859375 -14.828125 "/></g></g><g style="fill:#ffffff;fill-opacity:1;"><g transform="translate(111.850309, 43.805948)"><path style="stroke:none" d="M 22.765625 0 L 18.546875 0 C 18.160156 0 17.925781 -0.203125 17.84375 -0.609375 L 16.453125 -6.109375 L 8.25 -6.109375 L 6.890625 -0.609375 C 6.804688 -0.203125 6.570312 0 6.1875 0 L 1.921875 0 C 1.398438 0 1.210938 -0.242188 1.359375 -0.734375 L 8.59375 -29.921875 C 8.675781 -30.328125 8.921875 -30.53125 9.328125 -30.53125 L 15.40625 -30.53125 C 15.8125 -30.53125 16.054688 -30.328125 16.140625 -29.921875 L 23.390625 -0.734375 C 23.523438 -0.242188 23.316406 0 22.765625 0 Z M 15.09375 -11.171875 L 12.34375 -23.03125 L 9.59375 -11.171875 Z M 15.09375 -11.171875 "/></g></g><g style="fill:#ffffff;fill-opacity:1;"><g transform="translate(137.148529, 43.805948)"><path style="stroke:none" d="M 19.671875 -24.25 L 19.671875 -19.546875 C 19.671875 -19.078125 19.441406 -18.84375 18.984375 -18.84375 L 14.875 -18.84375 C 14.40625 -18.84375 14.171875 -19.078125 14.171875 -19.546875 L 14.171875 -23.125 C 14.171875 -24.28125 13.59375 -24.859375 12.4375 -24.859375 L 9.640625 -24.859375 C 8.472656 -24.859375 7.890625 -24.28125 7.890625 -23.125 L 7.890625 -7.28125 C 7.890625 -6.125 8.472656 -5.546875 9.640625 -5.546875 L 12.4375 -5.546875 C 13.59375 -5.546875 14.171875 -6.125 14.171875 -7.28125 L 14.171875 -11 C 14.171875 -11.457031 14.40625 -11.6875 14.875 -11.6875 L 18.984375 -11.6875 C 19.441406 -11.6875 19.671875 -11.457031 19.671875 -11 L 19.671875 -6.28125 C 19.671875 -4.25 19.132812 -2.691406 18.0625 -1.609375 C 16.988281 -0.535156 15.429688 0 13.390625 0 L 8.5 0 C 6.46875 0 4.90625 -0.535156 3.8125 -1.609375 C 2.726562 -2.691406 2.1875 -4.25 2.1875 -6.28125 L 2.1875 -24.25 C 2.1875 -26.320312 2.726562 -27.882812 3.8125 -28.9375 C 4.90625 -30 6.46875 -30.53125 8.5 -30.53125 L 13.390625 -30.53125 C 15.429688 -30.53125 16.988281 -30 18.0625 -28.9375 C 19.132812 -27.882812 19.671875 -26.320312 19.671875 -24.25 Z M 19.671875 -24.25 "/></g></g><g style="fill:#ffffff;fill-opacity:1;"><g transform="translate(159.568002, 43.805948)"><path style="stroke:none" d="M 18.0625 -30.53125 L 2 -30.53125 C 1.539062 -30.53125 1.3125 -30.300781 1.3125 -29.84375 L 1.3125 -25.484375 C 1.3125 -25.015625 1.539062 -24.78125 2 -24.78125 L 7.0625 -24.78125 L 7.0625 -0.703125 C 7.0625 -0.234375 7.296875 0 7.765625 0 L 12.296875 0 C 12.765625 0 13 -0.234375 13 -0.703125 L 13 -24.78125 L 18.0625 -24.78125 C 18.53125 -24.78125 18.765625 -25.015625 18.765625 -25.484375 L 18.765625 -29.84375 C 18.765625 -30.300781 18.53125 -30.53125 18.0625 -30.53125 Z M 18.0625 -30.53125 "/></g></g><g style="fill:#ffffff;fill-opacity:1;"><g transform="translate(180.199169, 43.805948)"><path style="stroke:none" d="M 2.1875 -6.28125 L 2.1875 -24.25 C 2.1875 -26.320312 2.722656 -27.882812 3.796875 -28.9375 C 4.867188 -30 6.425781 -30.53125 8.46875 -30.53125 L 13.34375 -30.53125 C 15.414062 -30.53125 16.976562 -30 18.03125 -28.9375 C 19.09375 -27.882812 19.625 -26.320312 19.625 -24.25 L 19.625 -6.28125 C 19.625 -4.25 19.09375 -2.691406 18.03125 -1.609375 C 16.976562 -0.535156 15.414062 0 13.34375 0 L 8.46875 0 C 6.425781 0 4.867188 -0.535156 3.796875 -1.609375 C 2.722656 -2.691406 2.1875 -4.25 2.1875 -6.28125 Z M 9.59375 -5.625 L 12.390625 -5.625 C 13.554688 -5.625 14.140625 -6.207031 14.140625 -7.375 L 14.140625 -23.171875 C 14.140625 -24.328125 13.554688 -24.90625 12.390625 -24.90625 L 9.59375 -24.90625 C 8.4375 -24.90625 7.859375 -24.328125 7.859375 -23.171875 L 7.859375 -7.375 C 7.859375 -6.207031 8.4375 -5.625 9.59375 -5.625 Z M 9.59375 -5.625 "/></g></g><g style="fill:#ffffff;fill-opacity:1;"><g transform="translate(202.575017, 43.805948)"><path style="stroke:none" d="M 19.625 -24.25 L 19.625 -15.484375 C 19.625 -12.953125 18.8125 -11.179688 17.1875 -10.171875 L 19.453125 -0.78125 C 19.597656 -0.257812 19.394531 0 18.84375 0 L 14.578125 0 C 14.160156 0 13.910156 -0.203125 13.828125 -0.609375 L 11.734375 -9.203125 L 7.859375 -9.203125 L 7.859375 -0.703125 C 7.859375 -0.234375 7.625 0 7.15625 0 L 2.875 0 C 2.414062 0 2.1875 -0.234375 2.1875 -0.703125 L 2.1875 -29.84375 C 2.1875 -30.300781 2.414062 -30.53125 2.875 -30.53125 L 13.34375 -30.53125 C 15.414062 -30.53125 16.976562 -30 18.03125 -28.9375 C 19.09375 -27.882812 19.625 -26.320312 19.625 -24.25 Z M 7.859375 -14.828125 L 12.21875 -14.828125 C 13.375 -14.828125 13.953125 -15.410156 13.953125 -16.578125 L 13.953125 -23.171875 C 13.953125 -24.328125 13.375 -24.90625 12.21875 -24.90625 L 7.859375 -24.90625 Z M 7.859375 -14.828125 "/></g></g><g style="fill:#ffffff;fill-opacity:1;"><g transform="translate(2.333285, 62.545946)"><path style="stroke:none" d="M 10.46875 -15.65625 L 13.421875 -15.65625 C 13.722656 -15.65625 13.875 -15.507812 13.875 -15.21875 L 13.875 -0.453125 C 13.875 -0.148438 13.722656 0 13.421875 0 L 11.34375 0 C 11.039062 0 10.890625 -0.148438 10.890625 -0.453125 L 10.890625 -9.234375 L 10.734375 -9.234375 L 8.640625 -0.375 C 8.566406 -0.125 8.398438 0 8.140625 0 L 6.828125 0 C 6.566406 0 6.398438 -0.125 6.328125 -0.375 L 4.234375 -9.234375 L 4.078125 -9.234375 L 4.078125 -0.453125 C 4.078125 -0.148438 3.925781 0 3.625 0 L 1.5625 0 C 1.269531 0 1.125 -0.148438 1.125 -0.453125 L 1.125 -15.21875 C 1.125 -15.507812 1.269531 -15.65625 1.5625 -15.65625 L 4.515625 -15.65625 C 4.773438 -15.65625 4.941406 -15.53125 5.015625 -15.28125 L 7.5 -5.296875 L 9.984375 -15.28125 C 10.054688 -15.53125 10.21875 -15.65625 10.46875 -15.65625 Z M 10.46875 -15.65625 "/></g></g><g style="fill:#ffffff;fill-opacity:1;"><g transform="translate(17.313891, 62.545946)"><path style="stroke:none" d="M 11.6875 0 L 9.515625 0 C 9.316406 0 9.195312 -0.101562 9.15625 -0.3125 L 8.4375 -3.125 L 4.234375 -3.125 L 3.53125 -0.3125 C 3.488281 -0.101562 3.367188 0 3.171875 0 L 0.984375 0 C 0.710938 0 0.613281 -0.125 0.6875 -0.375 L 4.40625 -15.34375 C 4.445312 -15.550781 4.570312 -15.65625 4.78125 -15.65625 L 7.890625 -15.65625 C 8.109375 -15.65625 8.238281 -15.550781 8.28125 -15.34375 L 12 -0.375 C 12.070312 -0.125 11.96875 0 11.6875 0 Z M 7.734375 -5.734375 L 6.328125 -11.8125 L 4.921875 -5.734375 Z M 7.734375 -5.734375 "/></g></g><g style="fill:#ffffff;fill-opacity:1;"><g transform="translate(29.991516, 62.545946)"><path style="stroke:none" d="M 10.0625 -12.4375 L 10.0625 -7.9375 C 10.0625 -6.644531 9.644531 -5.738281 8.8125 -5.21875 L 9.984375 -0.40625 C 10.054688 -0.132812 9.953125 0 9.671875 0 L 7.46875 0 C 7.257812 0 7.132812 -0.101562 7.09375 -0.3125 L 6.015625 -4.71875 L 4.03125 -4.71875 L 4.03125 -0.359375 C 4.03125 -0.117188 3.910156 0 3.671875 0 L 1.484375 0 C 1.242188 0 1.125 -0.117188 1.125 -0.359375 L 1.125 -15.296875 C 1.125 -15.535156 1.242188 -15.65625 1.484375 -15.65625 L 6.84375 -15.65625 C 7.90625 -15.65625 8.707031 -15.382812 9.25 -14.84375 C 9.789062 -14.300781 10.0625 -13.5 10.0625 -12.4375 Z M 4.03125 -7.609375 L 6.265625 -7.609375 C 6.859375 -7.609375 7.15625 -7.90625 7.15625 -8.5 L 7.15625 -11.875 C 7.15625 -12.476562 6.859375 -12.78125 6.265625 -12.78125 L 4.03125 -12.78125 Z M 4.03125 -7.609375 "/></g></g><g style="fill:#ffffff;fill-opacity:1;"><g transform="translate(41.171073, 62.545946)"><path style="stroke:none" d="M 10.6875 0 L 8.328125 0 C 8.097656 0 7.925781 -0.109375 7.8125 -0.328125 L 4.984375 -5.859375 L 4.15625 -4.28125 L 4.15625 -0.453125 C 4.15625 -0.148438 4.007812 0 3.71875 0 L 1.5625 0 C 1.269531 0 1.125 -0.148438 1.125 -0.453125 L 1.125 -15.21875 C 1.125 -15.507812 1.269531 -15.65625 1.5625 -15.65625 L 3.71875 -15.65625 C 4.007812 -15.65625 4.15625 -15.507812 4.15625 -15.21875 L 4.15625 -9.390625 L 7.609375 -15.328125 C 7.722656 -15.546875 7.894531 -15.65625 8.125 -15.65625 L 10.46875 -15.65625 C 10.632812 -15.65625 10.75 -15.601562 10.8125 -15.5 C 10.882812 -15.394531 10.875 -15.269531 10.78125 -15.125 L 6.984375 -8.4375 L 11.03125 -0.515625 C 11.101562 -0.367188 11.109375 -0.242188 11.046875 -0.140625 C 10.992188 -0.046875 10.875 0 10.6875 0 Z M 10.6875 0 "/></g></g><g style="fill:#ffffff;fill-opacity:1;"><g transform="translate(53.155568, 62.545946)"><path style="stroke:none" d="M 10.046875 -15.296875 L 10.046875 -13.0625 C 10.046875 -12.8125 9.925781 -12.6875 9.6875 -12.6875 L 4.15625 -12.6875 L 4.15625 -9.234375 L 8.375 -9.234375 C 8.601562 -9.234375 8.71875 -9.109375 8.71875 -8.859375 L 8.71875 -6.640625 C 8.71875 -6.390625 8.601562 -6.265625 8.375 -6.265625 L 4.15625 -6.265625 L 4.15625 -2.953125 L 9.6875 -2.953125 C 9.925781 -2.953125 10.046875 -2.832031 10.046875 -2.59375 L 10.046875 -0.359375 C 10.046875 -0.117188 9.925781 0 9.6875 0 L 1.453125 0 C 1.234375 0 1.125 -0.117188 1.125 -0.359375 L 1.125 -15.296875 C 1.125 -15.535156 1.234375 -15.65625 1.453125 -15.65625 L 9.6875 -15.65625 C 9.925781 -15.65625 10.046875 -15.535156 10.046875 -15.296875 Z M 10.046875 -15.296875 "/></g></g><g style="fill:#ffffff;fill-opacity:1;"><g transform="translate(64.312764, 62.545946)"><path style="stroke:none" d="M 9.265625 -15.65625 L 1.03125 -15.65625 C 0.789062 -15.65625 0.671875 -15.535156 0.671875 -15.296875 L 0.671875 -13.0625 C 0.671875 -12.820312 0.789062 -12.703125 1.03125 -12.703125 L 3.625 -12.703125 L 3.625 -0.359375 C 3.625 -0.117188 3.742188 0 3.984375 0 L 6.3125 0 C 6.550781 0 6.671875 -0.117188 6.671875 -0.359375 L 6.671875 -12.703125 L 9.265625 -12.703125 C 9.503906 -12.703125 9.625 -12.820312 9.625 -13.0625 L 9.625 -15.296875 C 9.625 -15.535156 9.503906 -15.65625 9.265625 -15.65625 Z M 9.265625 -15.65625 "/></g></g><g style="fill:#ffffff;fill-opacity:1;"><g transform="translate(74.597962, 62.545946)"><path style="stroke:none" d="M 1.484375 0 L 3.796875 0 C 4.035156 0 4.15625 -0.117188 4.15625 -0.359375 L 4.15625 -15.296875 C 4.15625 -15.535156 4.035156 -15.65625 3.796875 -15.65625 L 1.484375 -15.65625 C 1.242188 -15.65625 1.125 -15.535156 1.125 -15.296875 L 1.125 -0.359375 C 1.125 -0.117188 1.242188 0 1.484375 0 Z M 1.484375 0 "/></g></g><g style="fill:#ffffff;fill-opacity:1;"><g transform="translate(79.874717, 62.545946)"><path style="stroke:none" d="M 8.21875 -15.65625 L 10.3125 -15.65625 C 10.550781 -15.65625 10.671875 -15.535156 10.671875 -15.296875 L 10.671875 -0.359375 C 10.671875 -0.117188 10.550781 0 10.3125 0 L 8.546875 0 C 8.367188 0 8.234375 -0.0976562 8.140625 -0.296875 L 3.9375 -8.84375 L 3.9375 -0.359375 C 3.9375 -0.117188 3.816406 0 3.578125 0 L 1.484375 0 C 1.242188 0 1.125 -0.117188 1.125 -0.359375 L 1.125 -15.296875 C 1.125 -15.535156 1.242188 -15.65625 1.484375 -15.65625 L 3.25 -15.65625 C 3.425781 -15.65625 3.554688 -15.5625 3.640625 -15.375 L 7.859375 -6.828125 L 7.859375 -15.296875 C 7.859375 -15.535156 7.976562 -15.65625 8.21875 -15.65625 Z M 8.21875 -15.65625 "/></g></g><g style="fill:#ffffff;fill-opacity:1;"><g transform="translate(91.657972, 62.545946)"><path style="stroke:none" d="M 1.125 -3.21875 L 1.125 -12.4375 C 1.125 -13.5 1.398438 -14.300781 1.953125 -14.84375 C 2.503906 -15.382812 3.300781 -15.65625 4.34375 -15.65625 L 6.84375 -15.65625 C 7.882812 -15.65625 8.679688 -15.382812 9.234375 -14.84375 C 9.785156 -14.300781 10.0625 -13.5 10.0625 -12.4375 L 10.0625 -10.78125 C 10.0625 -10.539062 9.941406 -10.421875 9.703125 -10.421875 L 7.609375 -10.421875 C 7.367188 -10.421875 7.25 -10.539062 7.25 -10.78125 L 7.25 -11.875 C 7.25 -12.476562 6.953125 -12.78125 6.359375 -12.78125 L 4.921875 -12.78125 C 4.328125 -12.78125 4.03125 -12.476562 4.03125 -11.875 L 4.03125 -3.78125 C 4.03125 -3.1875 4.328125 -2.890625 4.921875 -2.890625 L 6.359375 -2.890625 C 6.953125 -2.890625 7.25 -3.1875 7.25 -3.78125 L 7.25 -5.734375 L 6.09375 -5.734375 C 5.851562 -5.734375 5.734375 -5.851562 5.734375 -6.09375 L 5.734375 -8.328125 C 5.734375 -8.566406 5.851562 -8.6875 6.09375 -8.6875 L 9.703125 -8.6875 C 9.941406 -8.6875 10.0625 -8.566406 10.0625 -8.328125 L 10.0625 -3.21875 C 10.0625 -2.175781 9.785156 -1.378906 9.234375 -0.828125 C 8.679688 -0.273438 7.882812 0 6.84375 0 L 4.34375 0 C 3.300781 0 2.503906 -0.273438 1.953125 -0.828125 C 1.398438 -1.378906 1.125 -2.175781 1.125 -3.21875 Z M 1.125 -3.21875 "/></g></g><g style="fill:#ffffff;fill-opacity:1;"><g transform="translate(102.837529, 62.545946)"><path style="stroke:none" d=""/></g></g><g style="fill:#ffffff;fill-opacity:1;"><g transform="translate(108.427308, 62.545946)"><path style="stroke:none" d="M 10.46875 -15.65625 L 13.421875 -15.65625 C 13.722656 -15.65625 13.875 -15.507812 13.875 -15.21875 L 13.875 -0.453125 C 13.875 -0.148438 13.722656 0 13.421875 0 L 11.34375 0 C 11.039062 0 10.890625 -0.148438 10.890625 -0.453125 L 10.890625 -9.234375 L 10.734375 -9.234375 L 8.640625 -0.375 C 8.566406 -0.125 8.398438 0 8.140625 0 L 6.828125 0 C 6.566406 0 6.398438 -0.125 6.328125 -0.375 L 4.234375 -9.234375 L 4.078125 -9.234375 L 4.078125 -0.453125 C 4.078125 -0.148438 3.925781 0 3.625 0 L 1.5625 0 C 1.269531 0 1.125 -0.148438 1.125 -0.453125 L 1.125 -15.21875 C 1.125 -15.507812 1.269531 -15.65625 1.5625 -15.65625 L 4.515625 -15.65625 C 4.773438 -15.65625 4.941406 -15.53125 5.015625 -15.28125 L 7.5 -5.296875 L 9.984375 -15.28125 C 10.054688 -15.53125 10.21875 -15.65625 10.46875 -15.65625 Z M 10.46875 -15.65625 "/></g></g><g style="fill:#ffffff;fill-opacity:1;"><g transform="translate(123.407914, 62.545946)"><path style="stroke:none" d="M 11.6875 0 L 9.515625 0 C 9.316406 0 9.195312 -0.101562 9.15625 -0.3125 L 8.4375 -3.125 L 4.234375 -3.125 L 3.53125 -0.3125 C 3.488281 -0.101562 3.367188 0 3.171875 0 L 0.984375 0 C 0.710938 0 0.613281 -0.125 0.6875 -0.375 L 4.40625 -15.34375 C 4.445312 -15.550781 4.570312 -15.65625 4.78125 -15.65625 L 7.890625 -15.65625 C 8.109375 -15.65625 8.238281 -15.550781 8.28125 -15.34375 L 12 -0.375 C 12.070312 -0.125 11.96875 0 11.6875 0 Z M 7.734375 -5.734375 L 6.328125 -11.8125 L 4.921875 -5.734375 Z M 7.734375 -5.734375 "/></g></g><g style="fill:#ffffff;fill-opacity:1;"><g transform="translate(136.085539, 62.545946)"><path style="stroke:none" d="M 4.34375 -15.65625 L 6.84375 -15.65625 C 7.90625 -15.65625 8.707031 -15.382812 9.25 -14.84375 C 9.789062 -14.300781 10.0625 -13.5 10.0625 -12.4375 L 10.0625 -10.96875 C 10.0625 -10.726562 9.941406 -10.609375 9.703125 -10.609375 L 7.453125 -10.609375 C 7.210938 -10.609375 7.09375 -10.726562 7.09375 -10.96875 L 7.09375 -11.90625 C 7.09375 -12.5 6.796875 -12.796875 6.203125 -12.796875 L 4.96875 -12.796875 C 4.375 -12.796875 4.078125 -12.5 4.078125 -11.90625 L 4.078125 -10 L 9.484375 -8.25 C 9.867188 -8.125 10.0625 -7.847656 10.0625 -7.421875 L 10.0625 -3.21875 C 10.0625 -2.175781 9.789062 -1.378906 9.25 -0.828125 C 8.707031 -0.273438 7.90625 0 6.84375 0 L 4.34375 0 C 3.300781 0 2.503906 -0.273438 1.953125 -0.828125 C 1.398438 -1.378906 1.125 -2.175781 1.125 -3.21875 L 1.125 -4.671875 C 1.125 -4.910156 1.242188 -5.03125 1.484375 -5.03125 L 3.734375 -5.03125 C 3.972656 -5.03125 4.09375 -4.910156 4.09375 -4.671875 L 4.09375 -3.734375 C 4.09375 -3.140625 4.390625 -2.84375 4.984375 -2.84375 L 6.203125 -2.84375 C 6.796875 -2.84375 7.09375 -3.140625 7.09375 -3.734375 L 7.09375 -6 L 1.71875 -7.734375 C 1.320312 -7.867188 1.125 -8.144531 1.125 -8.5625 L 1.125 -12.4375 C 1.125 -13.5 1.398438 -14.300781 1.953125 -14.84375 C 2.503906 -15.382812 3.300781 -15.65625 4.34375 -15.65625 Z M 4.34375 -15.65625 "/></g></g><g style="fill:#ffffff;fill-opacity:1;"><g transform="translate(147.265096, 62.545946)"><path style="stroke:none" d="M 9.265625 -15.65625 L 1.03125 -15.65625 C 0.789062 -15.65625 0.671875 -15.535156 0.671875 -15.296875 L 0.671875 -13.0625 C 0.671875 -12.820312 0.789062 -12.703125 1.03125 -12.703125 L 3.625 -12.703125 L 3.625 -0.359375 C 3.625 -0.117188 3.742188 0 3.984375 0 L 6.3125 0 C 6.550781 0 6.671875 -0.117188 6.671875 -0.359375 L 6.671875 -12.703125 L 9.265625 -12.703125 C 9.503906 -12.703125 9.625 -12.820312 9.625 -13.0625 L 9.625 -15.296875 C 9.625 -15.535156 9.503906 -15.65625 9.265625 -15.65625 Z M 9.265625 -15.65625 "/></g></g><g style="fill:#ffffff;fill-opacity:1;"><g transform="translate(157.550294, 62.545946)"><path style="stroke:none" d="M 10.046875 -15.296875 L 10.046875 -13.0625 C 10.046875 -12.8125 9.925781 -12.6875 9.6875 -12.6875 L 4.15625 -12.6875 L 4.15625 -9.234375 L 8.375 -9.234375 C 8.601562 -9.234375 8.71875 -9.109375 8.71875 -8.859375 L 8.71875 -6.640625 C 8.71875 -6.390625 8.601562 -6.265625 8.375 -6.265625 L 4.15625 -6.265625 L 4.15625 -2.953125 L 9.6875 -2.953125 C 9.925781 -2.953125 10.046875 -2.832031 10.046875 -2.59375 L 10.046875 -0.359375 C 10.046875 -0.117188 9.925781 0 9.6875 0 L 1.453125 0 C 1.234375 0 1.125 -0.117188 1.125 -0.359375 L 1.125 -15.296875 C 1.125 -15.535156 1.234375 -15.65625 1.453125 -15.65625 L 9.6875 -15.65625 C 9.925781 -15.65625 10.046875 -15.535156 10.046875 -15.296875 Z M 10.046875 -15.296875 "/></g></g><g style="fill:#ffffff;fill-opacity:1;"><g transform="translate(168.70749, 62.545946)"><path style="stroke:none" d="M 10.0625 -12.4375 L 10.0625 -7.9375 C 10.0625 -6.644531 9.644531 -5.738281 8.8125 -5.21875 L 9.984375 -0.40625 C 10.054688 -0.132812 9.953125 0 9.671875 0 L 7.46875 0 C 7.257812 0 7.132812 -0.101562 7.09375 -0.3125 L 6.015625 -4.71875 L 4.03125 -4.71875 L 4.03125 -0.359375 C 4.03125 -0.117188 3.910156 0 3.671875 0 L 1.484375 0 C 1.242188 0 1.125 -0.117188 1.125 -0.359375 L 1.125 -15.296875 C 1.125 -15.535156 1.242188 -15.65625 1.484375 -15.65625 L 6.84375 -15.65625 C 7.90625 -15.65625 8.707031 -15.382812 9.25 -14.84375 C 9.789062 -14.300781 10.0625 -13.5 10.0625 -12.4375 Z M 4.03125 -7.609375 L 6.265625 -7.609375 C 6.859375 -7.609375 7.15625 -7.90625 7.15625 -8.5 L 7.15625 -11.875 C 7.15625 -12.476562 6.859375 -12.78125 6.265625 -12.78125 L 4.03125 -12.78125 Z M 4.03125 -7.609375 "/></g></g><g style="fill:#ffffff;fill-opacity:1;"><g transform="translate(179.887048, 62.545946)"><path style="stroke:none" d="M 10.46875 -15.65625 L 13.421875 -15.65625 C 13.722656 -15.65625 13.875 -15.507812 13.875 -15.21875 L 13.875 -0.453125 C 13.875 -0.148438 13.722656 0 13.421875 0 L 11.34375 0 C 11.039062 0 10.890625 -0.148438 10.890625 -0.453125 L 10.890625 -9.234375 L 10.734375 -9.234375 L 8.640625 -0.375 C 8.566406 -0.125 8.398438 0 8.140625 0 L 6.828125 0 C 6.566406 0 6.398438 -0.125 6.328125 -0.375 L 4.234375 -9.234375 L 4.078125 -9.234375 L 4.078125 -0.453125 C 4.078125 -0.148438 3.925781 0 3.625 0 L 1.5625 0 C 1.269531 0 1.125 -0.148438 1.125 -0.453125 L 1.125 -15.21875 C 1.125 -15.507812 1.269531 -15.65625 1.5625 -15.65625 L 4.515625 -15.65625 C 4.773438 -15.65625 4.941406 -15.53125 5.015625 -15.28125 L 7.5 -5.296875 L 9.984375 -15.28125 C 10.054688 -15.53125 10.21875 -15.65625 10.46875 -15.65625 Z M 10.46875 -15.65625 "/></g></g><g style="fill:#ffffff;fill-opacity:1;"><g transform="translate(194.867643, 62.545946)"><path style="stroke:none" d="M 1.484375 0 L 3.796875 0 C 4.035156 0 4.15625 -0.117188 4.15625 -0.359375 L 4.15625 -15.296875 C 4.15625 -15.535156 4.035156 -15.65625 3.796875 -15.65625 L 1.484375 -15.65625 C 1.242188 -15.65625 1.125 -15.535156 1.125 -15.296875 L 1.125 -0.359375 C 1.125 -0.117188 1.242188 0 1.484375 0 Z M 1.484375 0 "/></g></g><g style="fill:#ffffff;fill-opacity:1;"><g transform="translate(200.144398, 62.545946)"><path style="stroke:none" d="M 8.21875 -15.65625 L 10.3125 -15.65625 C 10.550781 -15.65625 10.671875 -15.535156 10.671875 -15.296875 L 10.671875 -0.359375 C 10.671875 -0.117188 10.550781 0 10.3125 0 L 8.546875 0 C 8.367188 0 8.234375 -0.0976562 8.140625 -0.296875 L 3.9375 -8.84375 L 3.9375 -0.359375 C 3.9375 -0.117188 3.816406 0 3.578125 0 L 1.484375 0 C 1.242188 0 1.125 -0.117188 1.125 -0.359375 L 1.125 -15.296875 C 1.125 -15.535156 1.242188 -15.65625 1.484375 -15.65625 L 3.25 -15.65625 C 3.425781 -15.65625 3.554688 -15.5625 3.640625 -15.375 L 7.859375 -6.828125 L 7.859375 -15.296875 C 7.859375 -15.535156 7.976562 -15.65625 8.21875 -15.65625 Z M 8.21875 -15.65625 "/></g></g><g style="fill:#ffffff;fill-opacity:1;"><g transform="translate(211.927675, 62.545946)"><path style="stroke:none" d="M 1.125 -0.359375 L 1.125 -15.296875 C 1.125 -15.535156 1.242188 -15.65625 1.484375 -15.65625 L 6.84375 -15.65625 C 7.90625 -15.65625 8.707031 -15.378906 9.25 -14.828125 C 9.789062 -14.273438 10.0625 -13.472656 10.0625 -12.421875 L 10.0625 -3.21875 C 10.0625 -2.175781 9.789062 -1.378906 9.25 -0.828125 C 8.707031 -0.273438 7.90625 0 6.84375 0 L 1.484375 0 C 1.242188 0 1.125 -0.117188 1.125 -0.359375 Z M 4.15625 -2.953125 L 6.21875 -2.953125 C 6.8125 -2.953125 7.109375 -3.25 7.109375 -3.84375 L 7.109375 -11.796875 C 7.109375 -12.398438 6.8125 -12.703125 6.21875 -12.703125 L 4.15625 -12.703125 Z M 4.15625 -2.953125 "/></g></g></g></svg>